<?xml version="1.0" encoding="iso-8859-1"?>
<!-- Uploaded to: SVG Repo, www.svgrepo.com, Generator: SVG Repo Mixer Tools -->
<svg fill="#000000" height="800px" width="800px" version="1.1" id="Layer_1" xmlns="http://www.w3.org/2000/svg" xmlns:xlink="http://www.w3.org/1999/xlink" 
	 viewBox="0 0 512 512" xml:space="preserve">
<g>
	<g>
		<g>
			<path d="M256,0C114.618,0,0,114.618,0,256s114.618,256,256,256s256-114.618,256-256S397.382,0,256,0z M256,469.333
				c-117.818,0-213.333-95.515-213.333-213.333S138.182,42.667,256,42.667S469.333,138.182,469.333,256S373.818,469.333,256,469.333
				z"/>
			<path d="M170.667,170.667c-11.776,0-21.333,9.557-21.333,21.333s9.557,21.333,21.333,21.333S192,203.776,192,192
				S182.443,170.667,170.667,170.667z"/>
			<path d="M170.667,106.667c-47.131,0-85.333,38.202-85.333,85.333s38.202,85.333,85.333,85.333S256,239.131,256,192
				S217.798,106.667,170.667,106.667z M170.667,234.667C147.099,234.667,128,215.567,128,192s19.099-42.667,42.667-42.667
				s42.667,19.099,42.667,42.667S194.234,234.667,170.667,234.667z"/>
			<path d="M341.333,170.667C329.557,170.667,320,180.224,320,192s9.557,21.333,21.333,21.333c11.776,0,21.333-9.557,21.333-21.333
				S353.109,170.667,341.333,170.667z"/>
			<path d="M341.333,106.667C294.202,106.667,256,144.869,256,192s38.202,85.333,85.333,85.333
				c47.131,0,85.333-38.202,85.333-85.333S388.465,106.667,341.333,106.667z M341.333,234.667
				c-23.567,0-42.667-19.099-42.667-42.667s19.099-42.667,42.667-42.667C364.901,149.333,384,168.433,384,192
				S364.901,234.667,341.333,234.667z"/>
			<path d="M392.203,300.307c-10.876-4.531-23.366,0.614-27.896,11.49c-25.456,61.112-93.807,81.792-164.104,52.51
				c-10.876-4.53-23.366,0.614-27.896,11.49c-4.531,10.876,0.614,23.366,11.49,27.896c90.538,37.714,184.595,9.256,219.896-75.49
				C408.224,317.327,403.079,304.837,392.203,300.307z"/>
		</g>
	</g>
</g>
</svg>