<?xml version="1.0" encoding="utf-8"?><!-- Uploaded to: SVG Repo, www.svgrepo.com, Generator: SVG Repo Mixer Tools -->
<svg version="1.1" id="designs" xmlns="http://www.w3.org/2000/svg" xmlns:xlink="http://www.w3.org/1999/xlink" 
	 width="800px" height="800px" viewBox="0 0 32 32" xml:space="preserve">
<style type="text/css">
	.sketchy_een{fill:#111918;}
</style>
<path class="sketchy_een" d="M21.655,11.673c0.123,0.213,0.121,0.418,0.084,0.651c-0.082,0.528-0.197,1.048-0.334,1.564
	c-0.117,0.438-0.256,0.893-0.475,1.294c-0.117,0.213-0.238,0.428-0.383,0.622c-0.145,0.193-0.291,0.379-0.475,0.538
	c-0.137,0.117-0.283,0.227-0.426,0.34c-0.383,0.293-0.839,0.483-1.282,0.663c-0.194,0.078-0.465,0.018-0.639-0.084
	c-0.184-0.109-0.321-0.287-0.379-0.493c-0.123-0.448,0.147-0.88,0.577-1.018c0.09-0.029,0.179-0.06,0.267-0.093
	c0.197-0.094,0.38-0.198,0.558-0.322c0.145-0.119,0.281-0.245,0.405-0.385c0.174-0.253,0.324-0.522,0.45-0.801
	c0.268-0.729,0.391-1.509,0.505-2.274c0.029-0.205,0.217-0.407,0.387-0.506c0.131-0.076,0.28-0.116,0.43-0.116
	c0.075,0,0.15,0.01,0.223,0.03C21.36,11.343,21.542,11.484,21.655,11.673z M27.59,8.767c-0.023,0.448-0.111,0.905-0.258,1.329
	c-0.08,0.229-0.176,0.459-0.289,0.674c-0.088,0.164-0.172,0.338-0.283,0.487c-0.158,0.213-0.315,0.407-0.514,0.582
	c-0.203,0.178-0.436,0.366-0.684,0.483c-0.439,0.205-0.892,0.346-1.365,0.454c-0.033,0.295-0.056,0.592-0.108,0.884
	c-0.072,0.409-0.158,0.821-0.293,1.214c-0.149,0.434-0.319,0.86-0.514,1.276c-0.168,0.354-0.373,0.69-0.592,1.016
	c-0.237,0.356-0.534,0.688-0.848,0.981c-0.326,0.307-0.661,0.62-1.042,0.86c-0.299,0.186-0.618,0.35-0.94,0.497
	c-0.213,0.098-0.444,0.193-0.676,0.25c-0.124,0.031-0.246,0.064-0.368,0.096c0.04,1.06,0.045,2.121,0.093,3.182
	c0.005,0.125-0.03,0.239-0.084,0.344c0.096,0,0.192,0,0.288,0c0.576-0.004,1.153-0.028,1.729-0.028c0.214,0,0.428,0.003,0.642,0.012
	c0.019,0.001,0.034,0.01,0.053,0.012c0.028-0.003,0.055-0.011,0.083-0.011c0.15,0,0.299,0.04,0.429,0.116
	c0.17,0.098,0.36,0.301,0.389,0.504c0.084,0.596,0.149,1.184,0.17,1.783c0.014,0.377,0.004,0.755,0.02,1.131
	c0.244,0.002,0.487,0.008,0.731,0.01c0.27,0,0.543-0.002,0.815,0.023c0.414,0.035,0.782,0.168,1.022,0.53
	c0.08,0.123,0.139,0.276,0.162,0.424c0.07,0.471,0.098,0.932,0.053,1.407c-0.016,0.168-0.029,0.338-0.063,0.502
	c-0.055,0.26-0.154,0.483-0.321,0.69c-0.256,0.315-0.651,0.371-1.028,0.344c-0.79-0.059-1.593-0.033-2.383-0.016
	c-0.835,0.018-1.671,0.018-2.504,0.027c-0.846,0.01-1.693,0.049-2.539,0.094c-0.858,0.047-1.718,0.068-2.578,0.072
	c-0.813,0.004-1.624,0.002-2.436-0.008c-0.878-0.01-1.761-0.024-2.637-0.07c-0.248-0.012-0.504-0.033-0.741-0.104
	c-0.281-0.084-0.495-0.268-0.645-0.514c-0.151-0.246-0.164-0.565-0.195-0.841c-0.047-0.42-0.057-0.864,0.045-1.278
	c0.031-0.123,0.072-0.233,0.129-0.35c0.047-0.098,0.119-0.178,0.188-0.262c0.117-0.139,0.352-0.244,0.522-0.285
	c0.16-0.039,0.328-0.039,0.491-0.049c0.078-0.004,0.16-0.004,0.24-0.002c0.104,0,0.211,0.002,0.315-0.012
	c-0.076,0.01-0.152,0.021-0.227,0.031c0.204-0.028,0.409-0.048,0.615-0.07c0.078-0.012,0.157-0.024,0.235-0.037
	c0.003-0.381,0.007-0.763-0.004-1.144c-0.018-0.588-0.07-1.175-0.121-1.761c-0.039-0.459,0.414-0.842,0.841-0.842
	c0.136,0,0.264,0.043,0.383,0.105c0.019-0.001,0.035-0.011,0.054-0.011c0.229-0.004,0.461-0.006,0.692-0.008
	c0.777-0.008,1.553,0.004,2.33-0.028c-0.017-0.658-0.002-1.315-0.015-1.973c-0.014-0.615-0.037-1.232-0.048-1.847
	c-0.282-0.052-0.559-0.117-0.835-0.208c-0.407-0.135-0.821-0.262-1.19-0.485c-0.416-0.252-0.77-0.565-1.087-0.932
	c-0.295-0.34-0.575-0.702-0.811-1.085c-0.823-1.333-1.331-2.853-1.591-4.396c-0.195-0.019-0.389-0.04-0.583-0.07
	c-0.26-0.03-0.526-0.046-0.78-0.104c-0.254-0.059-0.5-0.158-0.723-0.289c-0.373-0.217-0.725-0.508-1.011-0.829
	C4.747,10.505,4.338,9.553,4.413,8.56C4.45,8.081,4.546,7.614,4.72,7.168C4.909,6.683,5.175,6.24,5.505,5.837
	c0.19-0.233,0.403-0.43,0.645-0.61c0.281-0.213,0.614-0.34,0.954-0.426c0.381-0.098,0.768-0.145,1.155-0.209
	c0.085-0.014,0.166-0.023,0.246-0.023c0.019,0,0.037,0.005,0.056,0.006C8.696,3.68,8.856,2.788,9.032,1.9
	c0.05-0.251,0.244-0.431,0.473-0.525C9.655,1.157,9.89,1,10.168,1c0.006,0,0.012,0,0.017,0c0.895,0.018,1.787,0.047,2.682,0.059
	c0.839,0.012,1.677-0.016,2.516-0.016c0.835,0,1.671,0.002,2.506,0.002c0.844,0,1.689-0.014,2.533-0.012
	c0.393,0.002,0.786,0,1.179-0.002c0.254-0.002,0.506-0.014,0.758-0.004c0.261,0.01,0.488,0.137,0.642,0.325
	c0.038,0.015,0.077,0.026,0.113,0.047c0.174,0.1,0.35,0.297,0.387,0.504c0.157,0.878,0.287,1.759,0.397,2.643
	c0.127,0.018,0.255,0.028,0.382,0.048c0.195,0.033,0.389,0.066,0.581,0.106c0.186,0.039,0.389,0.066,0.565,0.137
	c0.274,0.113,0.524,0.223,0.76,0.399c0.293,0.219,0.538,0.463,0.743,0.764c0.295,0.438,0.461,0.936,0.557,1.448
	C27.564,7.874,27.613,8.333,27.59,8.767z M8.178,9.514C8.161,8.685,8.188,7.848,8.26,7.019c0.021-0.243,0.063-0.483,0.089-0.726
	C8.225,6.31,8.1,6.329,7.976,6.344C7.762,6.379,7.557,6.429,7.353,6.5c-0.07,0.037-0.139,0.076-0.206,0.119
	c-0.116,0.1-0.222,0.209-0.321,0.327c-0.143,0.212-0.272,0.43-0.388,0.658c-0.109,0.29-0.186,0.583-0.238,0.89
	C6.186,8.668,6.185,8.84,6.197,9.016c0.031,0.165,0.071,0.325,0.124,0.484c0.093,0.189,0.201,0.366,0.323,0.536
	c0.137,0.159,0.286,0.302,0.447,0.437c0.103,0.073,0.208,0.139,0.32,0.198c0.198,0.063,0.399,0.091,0.608,0.122
	c0.081,0.012,0.162,0.025,0.242,0.038C8.218,10.392,8.186,9.952,8.178,9.514z M17.586,24.964c-0.491,0.002-0.985,0.004-1.476,0.002
	c-0.401,0-0.803-0.002-1.204,0.01c-0.401,0.012-0.803,0.045-1.202,0.068c-0.734,0.041-1.469,0.068-2.204,0.092
	c0.015,0.289,0.036,0.577,0.046,0.865c0.011,0.321,0.011,0.642,0.012,0.962c0.683-0.031,1.367-0.043,2.052-0.059
	c0.715-0.019,1.427-0.029,2.142-0.076c0.778-0.05,1.553-0.096,2.333-0.096c0.017,0,0.034,0,0.05,0c0.45,0,0.827,0.375,0.827,0.827
	c0,0.446-0.377,0.833-0.827,0.827c-1.214-0.016-2.426,0.053-3.64,0.07c-1.116,0.016-2.24,0.023-3.348,0.168
	c0.072-0.01,0.145-0.021,0.217-0.031c-0.219,0.03-0.439,0.061-0.659,0.091c-0.397,0.057-0.789,0.147-1.182,0.223
	c-0.146,0.027-0.293,0.041-0.441,0.05c0.002,0.099,0.007,0.198,0.015,0.297c1.722,0.182,3.456,0.185,5.184,0.181
	c0.866-0.002,1.728-0.022,2.592-0.072c0.85-0.047,1.699-0.072,2.551-0.102c0.43-0.016,0.862-0.018,1.294-0.029
	c0.407-0.01,0.815-0.043,1.224-0.062c0.393-0.016,0.788-0.027,1.181-0.033c0.177-0.003,0.357-0.003,0.537-0.007
	c0.004-0.156,0-0.312-0.013-0.469c-0.528-0.041-1.062-0.046-1.589-0.022c-0.367,0.016-0.681-0.245-0.805-0.576
	c-0.128-0.11-0.243-0.265-0.266-0.419c-0.037-0.27-0.07-0.534-0.065-0.807c0.004-0.182,0.018-0.362,0.029-0.545
	c0.021-0.384,0.007-0.768-0.032-1.149c-0.008-0.055-0.017-0.11-0.026-0.165C19.791,24.957,18.688,24.958,17.586,24.964z
	 M22.626,10.897c-0.014-0.659-0.02-1.317-0.029-1.974c-0.014-1.387-0.112-2.767-0.285-4.144c-0.102-0.7-0.238-1.393-0.374-2.087
	c-0.095-0.002-0.19-0.001-0.286-0.003c-0.364-0.008-0.731-0.012-1.095-0.01c-0.78,0.002-1.558,0-2.338-0.002
	c-0.919-0.004-1.841-0.008-2.76-0.004c-1.639,0.008-3.28,0.03-4.921,0.017c-0.199,0.941-0.401,1.882-0.544,2.833
	c-0.132,1.02-0.222,2.05-0.229,3.078C9.763,9.14,9.773,9.676,9.814,10.213c0.035,0.489,0.096,0.978,0.154,1.466
	c0.154,1.044,0.415,2.077,0.807,3.057c0.289,0.631,0.623,1.223,1.031,1.786c0.222,0.272,0.457,0.531,0.723,0.761
	c0.167,0.112,0.339,0.214,0.52,0.303c0.24,0.092,0.488,0.168,0.733,0.244c0.258,0.077,0.52,0.135,0.786,0.178
	c0.237,0.031,0.429,0.076,0.605,0.252c0.131,0.131,0.2,0.305,0.226,0.487c0.123,0.141,0.205,0.319,0.204,0.518
	c-0.002,0.762-0.004,1.525-0.002,2.289c0.002,0.356,0.008,0.712,0.014,1.069c0.003,0.259,0.008,0.517,0.018,0.775
	c0.328-0.01,0.657-0.02,0.986-0.021c0.265,0,0.531,0,0.796,0c-0.053-0.106-0.09-0.221-0.089-0.346
	c0.002-0.626-0.006-1.251-0.023-1.875c-0.018-0.639-0.08-1.271-0.123-1.908c-0.022-0.334,0.216-0.625,0.514-0.747
	c0.112-0.135,0.25-0.248,0.429-0.299c0.225-0.061,0.459-0.09,0.686-0.147c0.137-0.035,0.272-0.081,0.404-0.134
	c0.344-0.154,0.689-0.322,1-0.533c0.392-0.317,0.757-0.664,1.077-1.054c0.277-0.413,0.519-0.834,0.723-1.285
	c0.138-0.349,0.259-0.701,0.358-1.063c0.092-0.335,0.15-0.68,0.201-1.023C22.648,12.273,22.642,11.591,22.626,10.897z M25.965,9.094
	c0.024-0.307,0.011-0.606-0.023-0.911c-0.052-0.33-0.131-0.648-0.244-0.963c-0.062-0.124-0.134-0.243-0.211-0.359
	c-0.073-0.087-0.151-0.169-0.236-0.245c-0.11-0.076-0.223-0.143-0.343-0.203c-0.271-0.089-0.551-0.142-0.833-0.186
	c0.035,0.346,0.078,0.69,0.109,1.037c0.074,0.839,0.068,1.687,0.074,2.529c0.004,0.389,0.012,0.778,0.016,1.167
	c0.001,0.039,0.001,0.079,0.002,0.118c0.166-0.04,0.334-0.072,0.496-0.131c0.12-0.058,0.232-0.124,0.342-0.199
	c0.12-0.1,0.231-0.206,0.334-0.324c0.11-0.169,0.205-0.344,0.292-0.526C25.842,9.634,25.916,9.371,25.965,9.094z"/>
</svg>