<?xml version="1.0" ?>
<!DOCTYPE svg  PUBLIC '-//W3C//DTD SVG 1.1//EN'  'http://www.w3.org/Graphics/SVG/1.1/DTD/svg11.dtd'>
<!-- Uploaded to: SVG Repo, www.svgrepo.com, Generator: SVG Repo Mixer Tools -->
<svg fill="#000000" width="800px" height="800px" viewBox="0 0 512 512" version="1.1" xml:space="preserve" xmlns="http://www.w3.org/2000/svg" xmlns:xlink="http://www.w3.org/1999/xlink">
<g id="A_-_53_x2C__man_x2C__idea_x2C__success_x2C__light_x2C__growth">
<g>
<path d="M257.639,260.703c31.539,0,52.631-25.362,64.772-46.638c14.085-24.683,23.187-57.006,23.187-82.347    c0-48.5-39.459-87.958-87.959-87.958s-87.958,39.458-87.958,87.958c0,25.341,9.101,57.664,23.187,82.347    C205.009,235.341,226.102,260.703,257.639,260.703z M285.582,183.543v17.86c0,5.704-3.123,10.683-7.741,13.348v8.363    c0,1.812-1.468,3.28-3.28,3.28h-1.268v6.376c0,1.812-1.469,3.28-3.28,3.28H247.5c-1.812,0-3.28-1.468-3.28-3.28v-6.376h-1.268    c-1.812,0-3.28-1.468-3.28-3.28v-6.659c-6.927-1.508-12.133-7.681-12.133-15.053v-17.866    c-12.429-9.178-19.796-23.705-19.796-39.207c0-26.94,21.918-48.856,48.86-48.856c26.895,0,48.774,21.917,48.774,48.856    C305.377,159.891,298.01,174.419,285.582,183.543z M331.403,144.412c0,1.811-1.468,3.28-3.28,3.28h-14.211    c-1.813,0-3.28-1.469-3.28-3.28c0-1.812,1.468-3.28,3.28-3.28h14.211C329.936,141.132,331.403,142.6,331.403,144.412z     M304.622,112.828l12.296-7.025c1.572-0.899,3.576-0.351,4.475,1.222c0.898,1.572,0.353,3.576-1.222,4.474l-12.296,7.025    c-0.512,0.292-1.072,0.432-1.623,0.432c-1.139,0-2.246-0.594-2.852-1.653C302.502,115.729,303.049,113.726,304.622,112.828z     M282.414,93.12l7.109-12.293c0.908-1.568,2.914-2.105,4.482-1.197c1.568,0.907,2.104,2.914,1.197,4.481l-7.11,12.293    c-0.607,1.051-1.71,1.638-2.843,1.638c-0.557,0-1.121-0.142-1.639-0.441C282.043,96.695,281.508,94.688,282.414,93.12z     M253.402,71.725c0.024-1.811,1.522-3.282,3.324-3.235c1.812,0.025,3.259,1.513,3.235,3.324l-0.163,12.055    c-0.024,1.795-1.488,3.235-3.279,3.235c-0.015,0-0.03,0-0.045,0c-1.811-0.025-3.26-1.513-3.235-3.324L253.402,71.725z     M221.366,79.622c1.573-0.9,3.577-0.353,4.475,1.221l7.024,12.292c0.899,1.573,0.352,3.576-1.221,4.475    c-0.513,0.293-1.072,0.433-1.624,0.433c-1.139,0-2.246-0.594-2.851-1.653l-7.025-12.292    C219.247,82.524,219.794,80.521,221.366,79.622z M193.969,107.017c0.901-1.571,2.905-2.113,4.478-1.209l12.218,7.024    c1.571,0.902,2.111,2.907,1.209,4.478c-0.606,1.055-1.711,1.646-2.847,1.646c-0.555,0-1.116-0.14-1.632-0.437l-12.218-7.024    C193.606,110.592,193.065,108.587,193.969,107.017z M183.875,144.412c0-1.812,1.469-3.28,3.279-3.28h14.212    c1.812,0,3.28,1.468,3.28,3.28c0,1.811-1.468,3.28-3.28,3.28h-14.212C185.344,147.691,183.875,146.223,183.875,144.412z"/>
<path d="M256.603,102.034c-23.324,0-42.3,18.974-42.3,42.296c0,13.921,6.867,26.934,18.37,34.809    c0.892,0.611,1.427,1.625,1.427,2.706v19.559c0,4.882,3.972,8.853,8.853,8.853h4.943v-63.813l-21.807-10.831    c-1.622-0.806-2.284-2.774-1.478-4.397c0.805-1.623,2.776-2.283,4.396-1.478l23.627,11.735c1.115,0.554,1.821,1.692,1.821,2.938    v65.845h4.211v-65.845c0-1.246,0.705-2.384,1.82-2.938l23.627-11.735c1.625-0.805,3.592-0.144,4.398,1.478    c0.805,1.623,0.143,3.591-1.479,4.397l-21.807,10.831v63.813h4.943c4.882,0,8.853-3.971,8.853-8.853v-19.559    c0-1.086,0.537-2.101,1.437-2.712c11.495-7.815,18.359-20.826,18.359-34.802C298.817,121.008,279.881,102.034,256.603,102.034z     M256.603,134.919c-4.848,0-8.792-3.942-8.792-8.789c0-4.801,3.944-8.708,8.792-8.708c4.882,0,8.708,3.825,8.708,8.708    C265.311,130.977,261.404,134.919,256.603,134.919z"/>
<polygon points="246.232,216.816 246.232,219.835 247.5,219.835 270.013,219.835 271.281,219.835 271.281,216.816     270.169,216.816   "/>
<rect height="3.097" width="15.952" x="250.78" y="226.395"/>
<path d="M269.817,355.927l12.017,11.223l44.555-73.347l-16.219-14.798l-49.773,67.972l9.231,8.731    C269.699,355.775,269.754,355.854,269.817,355.927z"/>
<path d="M256.603,123.982c-1.252,0-2.233,0.943-2.233,2.148c0,1.229,1.002,2.229,2.233,2.229c1.205,0,2.148-0.979,2.148-2.229    C258.751,124.905,257.828,123.982,256.603,123.982z"/>
<polygon points="246.006,372.865 234.211,467.998 274.211,467.998 264.807,372.865   "/>
<path d="M331.961,297.261l-46.614,76.741c-0.513,0.844-1.378,1.412-2.356,1.547c-0.148,0.02-0.298,0.03-0.447,0.03    c-0.054,0-0.106-0.013-0.162-0.015c-0.088-0.005-0.174-0.015-0.26-0.025c-0.141-0.019-0.277-0.046-0.413-0.082    c-0.083-0.022-0.165-0.043-0.247-0.071c-0.143-0.05-0.276-0.113-0.411-0.184c-0.067-0.033-0.136-0.061-0.199-0.101    c-0.193-0.116-0.378-0.249-0.546-0.405l-9.373-8.753l0.111,3.174c0.021,0.153,0.033,0.309,0.033,0.468c0,0.006,0,0.01,0,0.015    l9.728,98.398h93.927v-81.567c0-1.812,1.469-3.28,3.279-3.28c1.812,0,3.28,1.469,3.28,3.28v81.81h55.46V338.454L331.961,297.261z"/>
<path d="M239.909,368.07l-10.687,10.628c-0.169,0.168-0.359,0.313-0.556,0.438c-0.068,0.044-0.14,0.074-0.21,0.111    c-0.136,0.073-0.274,0.142-0.418,0.194c-0.088,0.033-0.176,0.057-0.265,0.08c-0.138,0.039-0.276,0.068-0.418,0.087    c-0.093,0.014-0.187,0.023-0.281,0.028c-0.055,0.002-0.108,0.016-0.163,0.016c-0.156,0-0.313-0.012-0.47-0.033    c-0.255-0.038-0.502-0.104-0.737-0.197c-0.705-0.279-1.299-0.797-1.671-1.476l-44.114-80.638L75.25,338.454V468.24h55.467v-81.81    c0-1.812,1.469-3.28,3.28-3.28c1.812,0,3.28,1.469,3.28,3.28v81.567h90.324l12.238-98.714L239.909,368.07z"/>
<polygon points="264.145,359.604 256.036,352.031 246.875,361.143 246.581,366.306 264.381,366.306   "/>
<polygon points="201.755,279.01 185.52,293.88 227.692,370.969 242.054,356.686 251.313,346.678   "/>
</g>
</g>
<g id="Layer_1"/>
</svg>