<?xml version="1.0" encoding="UTF-8"?>
<svg id="Capa_2" data-name="Capa 2" xmlns="http://www.w3.org/2000/svg" viewBox="0 0 123.47 54.06">
  <defs>
    <style>
      .cls-1 {
        fill: #01bbc9;
      }

      .cls-1, .cls-2, .cls-3, .cls-4, .cls-5 {
        fill-rule: evenodd;
        stroke-width: 0px;
      }

      .cls-2 {
        fill: #78529f;
      }

      .cls-3 {
        fill: #89c54b;
      }

      .cls-4 {
        fill: #222124;
      }

      .cls-5 {
        fill: #3e4954;
      }
    </style>
  </defs>
  <g id="Capa_1-2" data-name="Capa 1">
    <path class="cls-1" d="m33.44,25.94l-2.65-8.86,1.32-5.75h-1.35c-.25.82-1.41.82-1.66,0l-.93-3.02L25.82.47c-.05-.17-.19-.28-.35-.35-.15-.08-.33-.12-.52-.12l-.09.05h-5.91c-.39,0-.67.38-.56.75l7.62,25.48c.07.25.3.42.56.42h6.31c.39,0,.67-.38.56-.75Z"/>
    <path class="cls-2" d="m92.4,26.41l-1.63.24h-.25c-.26-.01-.48-.2-.56-.45l-3.39-10.62c-.24-.8-1.43-.92-1.73-.18l-2.51-.67,5.03-14.03c0-.93,1.44-.56,1.05-.56l.25-.15c.34,0,.69.12.76.37l3.39,10.96c.25.82,1.41.82,1.65,0h1.35l-3.44,15.08Z"/>
    <path class="cls-3" d="m76.47,26.41l-1.63.24h-.25c-.26-.01-.48-.2-.56-.45l-3.39-10.62c-.24-.8-1.43-.92-1.73-.18l-2.51-.67,5.03-14.03c0-.93,1.44-.56,1.05-.56l.25-.15c.34,0,.69.12.76.37l3.39,10.96c.25.82,1.41.82,1.65,0h1.35l-3.45,15.08Z"/>
    <path class="cls-3" d="m60.53,26.41l-1.63.24h-.25c-.26-.01-.48-.2-.56-.45l-3.39-10.62c-.24-.8-1.43-.92-1.73-.18l-2.51-.67L55.51.7c0-.93,1.44-.56,1.05-.56l.25-.15c.34,0,.69.12.76.37l3.39,10.96c.25.82,1.41.82,1.65,0h1.35l-3.45,15.08Z"/>
    <path class="cls-1" d="m44.59,26.41l-1.63.24h-.25c-.26-.01-.48-.2-.56-.45l-3.39-10.62c-.24-.8-1.43-.92-1.73-.18l-2.51-.67L39.58.7c0-.93,1.44-.56,1.05-.56l.25-.15c.34,0,.69.12.76.37l3.39,10.96c.25.82,1.41.82,1.65,0h1.35l-3.44,15.08Z"/>
    <path class="cls-4" d="m33.44,25.94l-2.65-8.86,1.32-5.75h-1.35c-.25.82-1.41.82-1.66,0l-.93-3.02L25.82.47c-.05-.17-.19-.28-.35-.35-.15-.08-.33-.12-.52-.12l-.09.05h-5.91c-.39,0-.67.38-.56.75l7.62,25.48c.07.25.3.42.56.42h6.31c.39,0,.67-.38.56-.75Z"/>
    <path class="cls-4" d="m92.4,26.41l-1.63.24h-.25c-.26-.01-.48-.2-.56-.45l-3.39-10.62c-.24-.8-1.43-.92-1.73-.18l-2.51-.67,5.03-14.03c0-.93,1.44-.56,1.05-.56l.25-.15c.34,0,.69.12.76.37l3.39,10.96c.25.82,1.41.82,1.65,0h1.35l-3.44,15.08Z"/>
    <path class="cls-4" d="m76.47,26.41l-1.63.24h-.25c-.26-.01-.48-.2-.56-.45l-3.39-10.62c-.24-.8-1.43-.92-1.73-.18l-2.51-.67,5.03-14.03c0-.93,1.44-.56,1.05-.56l.25-.15c.34,0,.69.12.76.37l3.39,10.96c.25.82,1.41.82,1.65,0h1.35l-3.45,15.08Z"/>
    <path class="cls-4" d="m60.53,26.41l-1.63.24h-.25c-.26-.01-.48-.2-.56-.45l-3.39-10.62c-.24-.8-1.43-.92-1.73-.18l-2.51-.67L55.51.7c0-.93,1.44-.56,1.05-.56l.25-.15c.34,0,.69.12.76.37l3.39,10.96c.25.82,1.41.82,1.65,0h1.35l-3.45,15.08Z"/>
    <path class="cls-4" d="m44.59,26.41l-1.63.24h-.25c-.26-.01-.48-.2-.56-.45l-3.39-10.62c-.24-.8-1.43-.92-1.73-.18l-2.51-.67L39.58.7c0-.93,1.44-.56,1.05-.56l.25-.15c.34,0,.69.12.76.37l3.39,10.96c.25.82,1.41.82,1.65,0h1.35l-3.44,15.08Z"/>
    <path class="cls-2" d="m104.6,0h-6.31c-.26,0-.48.17-.56.42l-7.62,25.48c-.11.37.17.75.56.75h6.31c.26,0,.48-.17.56-.42L105.16.75c.11-.37-.17-.75-.56-.75Z"/>
    <path class="cls-2" d="m88.67,0h-6.31c-.26,0-.48.17-.56.42l-7.61,25.48c-.11.37.17.75.56.75h6.31c.26,0,.48-.17.56-.42L89.22.75c.11-.37-.17-.75-.56-.75Z"/>
    <path class="cls-3" d="m72.73,0h-6.31c-.26,0-.48.17-.56.42l-7.62,25.48c-.11.37.17.75.56.75h6.31c.26,0,.49-.17.56-.42L73.29.75c.11-.37-.17-.75-.56-.75Z"/>
    <path class="cls-3" d="m56.79,0h-6.31c-.26,0-.48.17-.56.42l-7.62,25.48c-.11.37.17.75.56.75h6.31c.26,0,.49-.17.56-.42L57.35.75c.11-.37-.17-.75-.56-.75Z"/>
    <path class="cls-1" d="m40.86,0h-6.31c-.26,0-.48.17-.56.42l-7.62,25.48c-.11.37.17.75.56.75h6.31c.26,0,.49-.17.56-.42L41.42.75c.11-.37-.17-.75-.56-.75Z"/>
    <path class="cls-5" d="m11.14,44.3h-1.06l-1.9-5.14c-.34-.91-.69-1.87-.96-2.8-.3.98-.68,1.97-1.01,2.82l-2.04,5.12h-1.06l-.04-.11-3.07-9.34h1.31l1.71,5.44c.3.96.52,1.69.72,2.38.23-.69.52-1.47.87-2.38l2.07-5.43h1.15l1.98,5.41c.31.84.58,1.61.83,2.4.2-.68.46-1.46.77-2.38l1.86-5.43h1.29l-3.43,9.45h0Zm112.33,7.55h-1.35v.42h.83v1.21c-.06.03-.15.06-.27.08-.12.02-.26.03-.44.03-.24,0-.45-.04-.65-.11-.19-.07-.36-.18-.5-.32-.14-.14-.24-.31-.32-.52-.07-.2-.11-.43-.11-.69s.04-.48.12-.69c.08-.2.19-.38.33-.52.14-.14.31-.25.51-.32.2-.07.43-.11.68-.11.21,0,.38.02.52.05.14.03.27.08.38.12l.13-.43c-.09-.04-.22-.09-.4-.13-.18-.04-.38-.06-.62-.06-.34,0-.65.05-.92.16-.27.11-.5.25-.69.44-.19.19-.34.41-.44.67-.1.26-.15.54-.15.84,0,.32.05.61.15.87.1.26.24.48.42.65.2.19.43.33.68.42.25.08.53.12.85.12.28,0,.53-.03.75-.08.22-.05.39-.1.51-.15v-1.97h0Zm-7.92,2.15v-1.75c0-.34,0-.64,0-.9,0-.26-.02-.52-.03-.78h.02c.1.22.22.44.35.67.13.23.27.46.41.69l1.3,2.07h.53v-4.09h-.5v1.71c0,.32,0,.61.01.87,0,.26.02.53.05.81h-.01c-.1-.2-.21-.42-.32-.63-.12-.22-.26-.45-.41-.69l-1.31-2.07h-.58v4.09h.5Zm-3.27-4.09v4.09h.53v-4.09h-.53Zm-3.56,4.09h.53v-3.65h1.25v-.44h-3.02v.44h1.24v3.65h0Zm-2.97-2.36h-1.59v-1.29h1.68v-.44h-2.21v4.09h2.3v-.44h-1.77v-1.47h1.59v-.44h0Zm-6.72,2.36h.53v-1.56l.39-.45,1.35,2.01h.62l-1.59-2.35,1.48-1.73h-.65l-1.25,1.53c-.05.07-.1.14-.16.21-.05.07-.11.15-.16.23h-.02v-1.97h-.53v4.09h0Zm-4.58,0h.53v-1.77h.5c.24,0,.42.07.54.19.12.12.22.32.28.6.06.25.11.47.15.64.05.17.09.28.12.34h.55c-.04-.08-.09-.22-.14-.41-.05-.19-.11-.43-.18-.72-.05-.21-.12-.39-.22-.53-.1-.14-.22-.24-.38-.29v-.02c.11-.04.21-.09.3-.15.09-.06.17-.14.24-.22.07-.09.12-.19.16-.3.04-.11.06-.24.06-.37,0-.16-.03-.3-.08-.44-.05-.13-.13-.25-.24-.34-.13-.12-.29-.2-.48-.25-.19-.05-.42-.08-.71-.08-.18,0-.36,0-.54.02-.18.01-.34.04-.47.06v4.03h0Zm.53-3.67s.11-.02.2-.03c.09-.01.19-.02.32-.02.28,0,.5.07.68.19.17.12.26.31.26.58,0,.23-.08.42-.25.56-.16.14-.39.21-.67.21h-.54v-1.49h0Zm-3.46,2.38l.44,1.29h.56l-1.39-4.09h-.64l-1.39,4.09h.55l.42-1.29h1.45Zm-1.34-.41l.4-1.19c.04-.13.08-.25.11-.37.03-.12.06-.25.1-.37h.01c.03.12.06.24.1.36.03.12.07.25.12.39l.4,1.18h-1.23Zm-3.42,1.69h.52l-.25-4.09h-.67l-.73,1.98c-.09.26-.17.5-.25.73-.07.23-.13.44-.18.65h-.02c-.05-.21-.11-.43-.18-.66-.07-.22-.15-.46-.23-.72l-.7-1.98h-.67l-.28,4.09h.5l.11-1.75c.02-.31.04-.62.05-.94.01-.32.02-.61.03-.86h.01c.06.24.13.5.21.76.08.26.17.54.27.83l.66,1.95h.4l.72-1.98c.1-.28.2-.55.28-.81.08-.25.16-.5.23-.75h.02c0,.13,0,.27,0,.41,0,.15,0,.3.01.45,0,.15.01.31.02.46,0,.15.02.3.02.44l.1,1.8h0Zm-6.63,0c-.12-.13-.24-.25-.35-.37-.11-.12-.22-.23-.33-.35.15-.18.28-.4.37-.65.09-.25.16-.54.22-.86h-.48c-.08.52-.21.92-.39,1.2-.06-.07-.14-.15-.22-.24-.08-.09-.16-.18-.25-.28-.09-.1-.18-.2-.27-.31-.09-.11-.18-.21-.26-.31v-.02c.33-.16.56-.33.69-.5.13-.17.2-.37.2-.59,0-.13-.02-.25-.07-.36-.05-.11-.11-.2-.19-.27-.08-.08-.18-.14-.29-.18-.11-.04-.23-.06-.35-.06-.17,0-.32.03-.45.09-.13.06-.24.14-.32.23-.09.09-.15.2-.2.32-.04.12-.07.24-.07.37,0,.15.03.29.09.44.06.15.14.28.25.42v.02c-.23.13-.43.29-.58.49-.15.19-.22.43-.22.71,0,.15.03.3.08.44.06.14.14.26.25.36.11.11.24.19.39.25.16.06.33.09.53.09.23,0,.44-.04.63-.11.2-.07.38-.19.56-.36.08.08.15.16.21.22.06.06.12.12.17.18h.63Zm-2.12-.34c-.12,0-.23-.02-.34-.06-.1-.04-.19-.1-.27-.17-.07-.07-.13-.16-.17-.26-.04-.1-.06-.21-.06-.33,0-.11.02-.21.05-.29.03-.09.08-.16.13-.23.05-.07.11-.13.17-.18.06-.05.12-.09.18-.13.11.13.23.26.34.38s.22.24.32.35c.1.11.19.21.28.31.08.09.16.17.22.24-.1.11-.22.19-.36.26-.14.07-.3.11-.48.11h0Zm.12-3.45c.08,0,.16.02.22.05.06.03.11.07.15.12.04.05.07.11.08.17.02.06.03.12.03.18,0,.17-.06.32-.18.44-.12.12-.29.24-.49.36-.09-.11-.16-.22-.22-.34-.06-.12-.09-.25-.09-.39,0-.16.04-.3.13-.42.09-.12.21-.18.38-.18h0Zm-5.4,2.51l.44,1.29h.56l-1.39-4.09h-.64l-1.39,4.09h.55l.42-1.29h1.45Zm-1.34-.41l.4-1.19c.04-.13.08-.25.11-.37.03-.12.06-.25.1-.37h.01c.03.12.06.24.1.36.03.12.07.25.12.39l.4,1.18h-1.23Zm-5.35,1.69h.53v-1.77h.5c.24,0,.42.07.54.19.12.12.22.32.28.6.06.25.11.47.15.64.05.17.09.28.12.34h.55c-.04-.08-.09-.22-.14-.41-.05-.19-.11-.43-.18-.72-.05-.21-.12-.39-.22-.53-.1-.14-.22-.24-.38-.29v-.02c.11-.04.21-.09.3-.15.09-.06.17-.14.24-.22.07-.09.12-.19.16-.3.04-.11.06-.24.06-.37,0-.16-.03-.3-.08-.44-.05-.13-.13-.25-.24-.34-.13-.12-.29-.2-.48-.25-.19-.05-.42-.08-.71-.08-.18,0-.36,0-.54.02-.18.01-.34.04-.47.06v4.03h0Zm.53-3.67s.11-.02.2-.03c.09-.01.19-.02.32-.02.28,0,.5.07.68.19.17.12.26.31.26.58,0,.23-.08.42-.25.56-.16.14-.39.21-.67.21h-.54v-1.49h0Zm-4.43,3.74c.26,0,.5-.05.73-.14.23-.09.43-.23.6-.41.17-.18.31-.4.41-.67.1-.27.15-.58.15-.93,0-.3-.04-.58-.13-.83-.09-.25-.21-.47-.37-.65-.16-.18-.35-.33-.58-.43-.23-.1-.48-.15-.76-.15s-.53.05-.76.15c-.23.1-.43.25-.6.43-.17.19-.3.41-.4.68-.09.26-.14.56-.14.88s.05.59.14.85c.09.25.22.47.38.66.16.18.35.32.58.42.22.1.47.15.74.15h0Zm.01-.44c-.21,0-.39-.05-.55-.14-.16-.09-.3-.21-.41-.36-.11-.15-.19-.33-.25-.53-.06-.2-.09-.4-.09-.62s.03-.43.08-.64c.05-.2.13-.38.24-.54.11-.16.25-.28.41-.38.17-.09.36-.14.58-.14s.41.05.57.14c.16.1.3.22.41.38.11.16.19.33.24.53.05.2.08.4.08.6,0,.23-.03.45-.09.65-.06.21-.14.39-.25.54-.11.15-.25.28-.41.36-.16.09-.35.13-.56.13h0Zm-6.97.38c.13.01.28.02.44.03.16,0,.33,0,.52,0,.4,0,.75-.05,1.06-.15.31-.1.55-.25.75-.44.19-.19.34-.42.44-.69.1-.27.15-.57.15-.9s-.05-.62-.15-.86c-.1-.24-.24-.44-.42-.61-.18-.17-.41-.3-.68-.38-.27-.08-.6-.13-.98-.13-.21,0-.41,0-.6.02-.19.02-.36.04-.52.06v4.03h0Zm.53-3.66c.07-.02.15-.03.26-.04.1,0,.22-.02.36-.02.56,0,.97.14,1.25.42.27.28.41.67.41,1.16,0,.56-.15.98-.45,1.29s-.73.45-1.29.45c-.11,0-.2,0-.29,0-.09,0-.17-.01-.24-.02v-3.24h0Zm-3.46,2.37l.44,1.29h.56l-1.39-4.09h-.64l-1.39,4.09h.55l.42-1.29h1.45Zm-1.34-.41l.4-1.19c.04-.13.08-.25.11-.37.03-.12.06-.25.1-.37h.01c.03.12.06.24.1.36.03.12.07.25.12.39l.4,1.18h-1.23Zm-5.72,1.69h2.98v-.44h-2.29v-.02l2.25-3.31v-.32h-2.76v.44h2.07v.02l-2.27,3.32v.31h0Zm-2.49-4.09v4.09h.53v-4.09h-.53Zm-4.18,4.09h2.27v-.44h-1.75v-3.65h-.53v4.09h0Zm-2.92-1.29l.44,1.29h.56l-1.39-4.09h-.64l-1.39,4.09h.55l.42-1.29h1.45Zm-1.34-.41l.4-1.19c.04-.13.08-.25.11-.37.03-.12.06-.25.1-.37h.01c.03.12.06.24.1.36.03.12.07.25.12.39l.4,1.18h-1.23Zm-3.54-2.4v4.09h.53v-4.09h-.53Zm-2.09,3.54c-.1.05-.23.09-.39.12-.15.03-.31.05-.47.05-.25,0-.47-.04-.67-.12-.19-.08-.36-.19-.49-.33-.13-.14-.24-.32-.31-.52-.07-.2-.11-.43-.11-.68,0-.27.04-.51.12-.72.08-.21.18-.39.32-.53.14-.14.31-.25.5-.33.2-.07.41-.11.65-.11.17,0,.32.02.46.05.14.03.26.07.36.12l.13-.43c-.07-.04-.18-.08-.35-.12-.16-.04-.37-.06-.62-.06-.32,0-.6.05-.87.15-.26.1-.49.25-.68.44s-.33.41-.44.68c-.1.26-.15.56-.15.88,0,.34.05.63.15.89.1.26.24.47.42.65.18.18.39.31.64.4.25.09.51.14.8.14.25,0,.47-.02.65-.06.19-.04.33-.09.42-.13l-.11-.42h0Zm-7.33.55h.53v-1.77h.5c.24,0,.42.07.54.19.12.12.22.32.28.6.06.25.11.47.15.64.05.17.09.28.12.34h.55c-.04-.08-.09-.22-.14-.41-.05-.19-.11-.43-.18-.72-.05-.21-.12-.39-.22-.53-.1-.14-.22-.24-.38-.29v-.02c.11-.04.21-.09.3-.15.09-.06.17-.14.24-.22.07-.09.12-.19.16-.3.04-.11.06-.24.06-.37,0-.16-.03-.3-.08-.44-.05-.13-.13-.25-.24-.34-.13-.12-.29-.2-.48-.25-.19-.05-.42-.08-.71-.08-.18,0-.36,0-.54.02-.18.01-.34.04-.47.06v4.03h0Zm.53-3.67s.11-.02.2-.03c.09-.01.19-.02.32-.02.28,0,.5.07.68.19.17.12.26.31.26.58,0,.23-.08.42-.25.56-.16.14-.39.21-.67.21h-.54v-1.49h0Zm-2.72,1.31h-1.59v-1.29h1.68v-.44h-2.21v4.09h2.3v-.44h-1.77v-1.47h1.59v-.44h0Zm-4.77,2.36h.52l-.25-4.09h-.67l-.73,1.98c-.09.26-.17.5-.25.73-.07.23-.13.44-.18.65h-.02c-.05-.21-.11-.43-.18-.66-.07-.22-.15-.46-.23-.72l-.7-1.98h-.67l-.28,4.09h.5l.11-1.75c.02-.31.04-.62.05-.94.01-.32.02-.61.03-.86h.01c.06.24.13.5.21.76.08.26.17.54.27.83l.66,1.95h.4l.72-1.98c.1-.28.2-.55.28-.81.08-.25.16-.5.23-.75h.02c0,.13,0,.27,0,.41,0,.15,0,.3.01.45,0,.15.01.31.02.46,0,.15.02.3.02.44l.1,1.8h0Zm-7.45.07c.26,0,.5-.05.73-.14.23-.09.43-.23.6-.41.17-.18.31-.4.41-.67.1-.27.15-.58.15-.93,0-.3-.04-.58-.13-.83-.09-.25-.21-.47-.37-.65-.16-.18-.35-.33-.58-.43-.23-.1-.48-.15-.76-.15s-.53.05-.76.15c-.23.1-.43.25-.6.43-.17.19-.3.41-.4.68-.09.26-.14.56-.14.88s.05.59.14.85c.09.25.22.47.38.66.16.18.35.32.58.42.22.1.47.15.74.15h0Zm.01-.44c-.21,0-.39-.05-.55-.14-.16-.09-.3-.21-.41-.36-.11-.15-.2-.33-.25-.53-.06-.2-.08-.4-.08-.62s.03-.43.08-.64c.05-.2.13-.38.24-.54.11-.16.25-.28.41-.38.17-.09.36-.14.58-.14s.41.05.57.14c.16.1.3.22.41.38.11.16.19.33.24.53.05.2.08.4.08.6,0,.23-.03.45-.09.65-.06.21-.14.39-.25.54-.11.15-.25.28-.41.36-.16.09-.35.13-.56.13h0Zm-3.71-.17c-.11.05-.23.09-.39.12-.15.03-.31.05-.47.05-.25,0-.47-.04-.67-.12-.19-.08-.36-.19-.49-.33-.13-.14-.24-.32-.31-.52-.07-.2-.11-.43-.11-.68,0-.27.04-.51.12-.72.08-.21.18-.39.32-.53.14-.14.31-.25.5-.33.2-.07.41-.11.65-.11.17,0,.32.02.46.05.14.03.26.07.36.12l.13-.43c-.07-.04-.18-.08-.35-.12-.16-.04-.37-.06-.62-.06-.32,0-.6.05-.87.15-.26.1-.49.25-.68.44-.19.19-.33.41-.44.68-.1.26-.15.56-.15.88,0,.34.05.63.15.89.1.26.24.47.42.65.18.18.39.31.64.4s.51.14.8.14c.25,0,.47-.02.65-.06.19-.04.33-.09.42-.13l-.11-.42h0Zm71.5-15.41c0-1.33-.04-2.42-.08-3.25h3.1l.15,1.24h.08c.28-.4,1.2-1.46,2.97-1.46,2.24,0,3.63,1.45,3.63,4.18v5.4h-3.59v-4.87c0-1.22-.44-1.86-1.33-1.86-.78,0-1.1.55-1.26.91-.07.17-.07.42-.07.63v5.19h-3.6v-6.11h0Zm15.36,1.43c0,1.33.53,2.42,1.71,2.42,1.03,0,1.64-.86,1.64-2.42,0-1.31-.5-2.42-1.64-2.42-1.25,0-1.71,1.2-1.71,2.42h0Zm7.1-.11c0,3.2-2.46,5.02-5.48,5.02s-5.37-1.75-5.37-4.83c0-2.85,2-4.98,5.59-4.98,3.1,0,5.25,1.98,5.25,4.79h0Zm1.76-4.57h3.6v9.36h-3.6v-9.36h0Zm3.65-2.61c0,.91-.69,1.66-1.86,1.66s-1.83-.74-1.83-1.66.69-1.65,1.84-1.65,1.83.72,1.85,1.65h0Zm2.34,8.98c.59.36,1.96.78,2.87.78.78,0,1.07-.15,1.07-.48s-.19-.46-1.28-.74c-2.19-.57-3.04-1.71-3.03-2.91,0-1.91,1.71-3.25,4.3-3.25,1.27,0,2.43.29,3.04.57l-.57,2.4c-.48-.23-1.48-.57-2.32-.57-.59,0-.97.11-.97.49,0,.31.32.5,1.52.82,1.96.53,2.78,1.47,2.8,2.95,0,1.73-1.39,3.16-4.53,3.16-1.46,0-2.68-.3-3.52-.7l.61-2.51h0Zm15.07-2.91c0-.42-.29-1.41-1.46-1.41-1.1,0-1.54.88-1.62,1.41h3.08Zm-3.02,2.42c.13.7,1.33,1.08,2.57,1.08.93,0,1.83-.08,2.8-.38l.46,2.36c-1.27.51-2.55.65-3.75.65-3.5,0-5.48-1.88-5.48-4.85,0-1.84,1.28-4.96,5.14-4.96,3.35,0,4.62,2.49,4.62,4.87,0,.49-.08,1.03-.13,1.24h-6.22Zm-90.75-2.98c0-1.08-.03-2.01-.08-2.8h2.08l.11,1.45h.06c.45-.72,1.32-1.67,3.09-1.67,1.31,0,2.34.76,2.76,1.83h.04c.35-.54.76-.94,1.2-1.22.58-.4,1.21-.61,2.08-.61,1.55,0,3.35,1.02,3.35,4.22v5.27h-2.37v-4.96c0-1.68-.66-2.56-1.85-2.56-.9,0-1.54.62-1.8,1.28-.08.24-.14.54-.14.8v5.44h-2.37v-5.16c0-1.46-.66-2.36-1.78-2.36-1.01,0-1.63.79-1.87,1.39-.1.25-.13.53-.13.78v5.35h-2.37v-6.46h0Zm22.72,1.96c-1.94-.03-3.57.36-3.57,1.7,0,.86.61,1.31,1.45,1.31,1.08,0,1.81-.69,2.05-1.36.05-.17.07-.36.07-.52v-1.13h0Zm.32,4.5l-.17-1.06h-.06c-.59.74-1.66,1.29-2.99,1.29-2.06,0-3.11-1.42-3.11-2.76,0-2.32,2.1-3.57,5.95-3.54v-.12c0-.49-.19-1.61-2.05-1.61-.99,0-2.07.33-2.74.75l-.49-1.57c.78-.47,2.06-.88,3.62-.88,3.17,0,4.09,1.95,4.09,4.01v3.21c0,.88.05,1.71.15,2.27h-2.21Zm7.19-5.23h.04c.24-.33.54-.73.81-1.06l2.52-2.97h3.02l-3.8,3.74,4.39,5.52h-3.08l-3.01-4.11-.89.98v3.13h-2.45v-13.62h2.45v8.39h0Zm14.18-.41c0-.65-.33-2.22-2.18-2.22-1.63,0-2.29,1.32-2.42,2.22h4.6Zm-4.59,1.69c.07,1.55,1.49,2.34,3.12,2.34,1.21,0,2.05-.17,2.85-.46l.37,1.66c-.86.36-2.03.64-3.54.64-3.21,0-5.13-1.9-5.13-4.73,0-2.39,1.58-4.99,4.89-4.99s4.34,2.71,4.34,4.59c0,.4-.04.76-.09.95h-6.81Zm-49.42-1.52h6.26c-.01-.43-.13-1.47-.84-2.2-.51-.52-1.22-.78-2.12-.78-2.05,0-3.04,1.56-3.3,2.98h0Zm3.52,5.85c-2.85,0-4.84-1.94-4.84-4.72,0-3.05,1.94-5.18,4.72-5.18,3.26,0,4.14,2.75,4.14,4.38,0,.29,0,.44-.04.61l-.03.12h-7.55c.06,2.27,1.47,3.68,3.7,3.68,1.5,0,2.24-.27,2.86-.56l.16-.07.35,1.04-.13.06c-.9.43-2.02.64-3.34.64Z"/>
  </g>
</svg>