<?xml version="1.0" encoding="UTF-8"?>
<svg id="Capa_2" data-name="Capa 2" xmlns="http://www.w3.org/2000/svg" viewBox="0 0 115.46 22.05">
  <defs>
    <style>
      .cls-1 {
        fill: #01bbc9;
      }

      .cls-1, .cls-2, .cls-3, .cls-4 {
        fill-rule: evenodd;
        stroke-width: 0px;
      }

      .cls-2 {
        fill: #78529f;
      }

      .cls-3 {
        fill: #89c54b;
      }

      .cls-4 {
        fill: #fff;
      }
    </style>
  </defs>
  <g id="Capa_1-2" data-name="Capa 1">
    <path class="cls-1" d="m1.11,4.2l1.57,4.99c.32,1.03.57,1.85.78,2.64h.04c.23-.75.55-1.6.94-2.64l1.91-4.99h.87l1.82,4.97c.39,1.07.68,1.92.91,2.65h.04c.2-.75.48-1.6.84-2.64l1.71-4.99h.89l-3.1,8.55h-.78l-1.75-4.72c-.41-1.09-.77-2.08-1.02-3.05h-.04c-.29,1-.66,2.01-1.07,3.06l-1.87,4.7h-.78L.21,4.2h.91Z"/>
    <path class="cls-1" d="m9.64,12.61h.58l2.99-8.26h-.57l-1.68,4.89c-.36,1.05-.64,1.9-.83,2.63l-.03.11h-.22l-.07-.1c-.28-.88-.57-1.72-.91-2.65l-1.78-4.88h-.67l-1.87,4.89c-.39,1.04-.71,1.89-.94,2.63l-.03.1h-.22l-.07-.11c-.21-.76-.44-1.54-.78-2.63l-1.53-4.88H.41l2.72,8.26h.57l1.83-4.61c.36-.92.76-1.99,1.06-3.05l.03-.11h.23l.06.11c.26.99.64,2.04,1.01,3.03l1.71,4.62h0Zm.78.3h-.99l-1.78-4.82c-.32-.85-.65-1.75-.9-2.62-.28.92-.63,1.85-.94,2.64l-1.91,4.8h-.99l-.03-.1L0,4.06h1.22l1.6,5.09c.28.9.49,1.58.67,2.22.22-.65.49-1.38.81-2.23l1.94-5.08h1.08l1.85,5.07c.29.79.54,1.51.78,2.25.18-.64.43-1.37.72-2.22l1.75-5.09h1.21l-3.21,8.85Z"/>
    <path class="cls-1" d="m21.52,7.79c.02-.89-.36-3.08-2.92-3.08-2.17,0-3.08,1.78-3.26,3.08h6.18Zm-6.24.7c0,2.49,1.59,3.74,3.62,3.74,1.48,0,2.19-.29,2.74-.53l.23.7c-.3.14-1.27.59-3.06.59-2.65,0-4.38-1.8-4.38-4.28,0-2.9,1.85-4.7,4.27-4.7,3.17,0,3.72,2.81,3.72,3.95,0,.27,0,.39-.04.54h-7.11Z"/>
    <path class="cls-1" d="m15.51,7.64h5.86c-.01-.4-.12-1.37-.79-2.06-.48-.48-1.14-.73-1.98-.73-1.92,0-2.85,1.46-3.09,2.79h0Zm6.15.3h-6.5l.02-.17c.2-1.48,1.22-3.21,3.41-3.21.92,0,1.66.27,2.2.82.67.68.89,1.69.87,2.42v.14h0Zm-2.96-3.79c3.48,0,3.58,3.41,3.58,3.81,0,.18,0,.29-.01.39h-7.13v.15c0,2.4,1.44,3.89,3.76,3.89,1.35,0,2.07-.23,2.65-.48l.14.41c-.78.34-1.75.52-2.88.52-2.53,0-4.23-1.66-4.23-4.13,0-2.72,1.66-4.55,4.13-4.55h0Zm.11,8.98c-2.67,0-4.53-1.82-4.53-4.42,0-2.86,1.82-4.85,4.42-4.85,3.06,0,3.87,2.58,3.87,4.1,0,.27,0,.41-.04.57l-.03.11h-7.07c.06,2.13,1.38,3.44,3.47,3.44,1.41,0,2.1-.26,2.68-.52l.15-.07.33.98-.12.06c-.84.4-1.9.6-3.13.6Z"/>
    <path class="cls-3" d="m24.52,6.71c0-1.01-.03-1.88-.07-2.62h1.94l.1,1.35h.06c.42-.67,1.24-1.57,2.89-1.57,1.23,0,2.19.71,2.59,1.72h.04c.33-.51.71-.88,1.12-1.14.54-.37,1.13-.58,1.95-.58,1.45,0,3.13.95,3.13,3.95v4.94h-2.22v-4.64c0-1.58-.62-2.4-1.73-2.4-.84,0-1.44.58-1.68,1.2-.08.22-.13.51-.13.75v5.09h-2.22v-4.84c0-1.37-.61-2.21-1.67-2.21-.95,0-1.53.74-1.75,1.3-.09.23-.12.49-.12.73v5.01h-2.22v-6.05Z"/>
    <path class="cls-3" d="m45.79,8.54c-1.82-.03-3.34.34-3.34,1.59,0,.81.57,1.22,1.35,1.22,1.01,0,1.7-.64,1.92-1.27.05-.16.07-.34.07-.49v-1.06h0Zm.3,4.22l-.16-.99h-.06c-.56.69-1.55,1.21-2.8,1.21-1.93,0-2.92-1.33-2.92-2.58,0-2.18,1.97-3.34,5.58-3.32v-.11c0-.46-.18-1.51-1.92-1.5-.93,0-1.94.3-2.57.7l-.46-1.47c.73-.44,1.92-.82,3.39-.82,2.96,0,3.83,1.83,3.83,3.75v3.01c0,.83.04,1.6.14,2.13h-2.07Z"/>
    <path class="cls-3" d="m52.82,7.85h.04c.22-.31.51-.68.76-.99l2.36-2.78h2.83l-3.56,3.51,4.11,5.17h-2.88l-2.82-3.85-.84.91v2.93h-2.29V0h2.29v7.85Z"/>
    <path class="cls-3" d="m66.09,7.47c0-.61-.31-2.08-2.04-2.08-1.52,0-2.15,1.23-2.27,2.08h4.31Zm-4.3,1.59c.07,1.45,1.39,2.19,2.93,2.19,1.13,0,1.92-.16,2.67-.43l.34,1.56c-.81.33-1.9.6-3.32.6-3.01,0-4.81-1.78-4.81-4.43,0-2.23,1.48-4.67,4.58-4.67s4.07,2.54,4.07,4.3c0,.38-.04.72-.09.89h-6.38Z"/>
    <path class="cls-2" d="m69.94,7.04c0-1.25-.04-2.26-.07-3.05h2.9l.14,1.16h.07c.27-.37,1.12-1.37,2.78-1.37,2.1,0,3.4,1.35,3.4,3.92v5.06h-3.37v-4.56c0-1.14-.41-1.75-1.25-1.75-.73,0-1.03.52-1.18.86-.07.16-.07.39-.07.59v4.87h-3.37v-5.72Z"/>
    <path class="cls-2" d="m84.32,8.37c0,1.25.5,2.26,1.6,2.26.96,0,1.53-.8,1.53-2.26,0-1.23-.46-2.26-1.53-2.26-1.17,0-1.6,1.12-1.6,2.26h0Zm6.65-.11c0,2.99-2.3,4.7-5.13,4.7s-5.03-1.64-5.03-4.53c0-2.67,1.87-4.67,5.24-4.67,2.9,0,4.92,1.85,4.92,4.49Z"/>
    <path class="cls-2" d="m92.61,3.99h3.37v8.76h-3.37V3.99h0Zm3.42-2.44c0,.86-.64,1.55-1.75,1.55s-1.71-.69-1.71-1.55.64-1.55,1.73-1.55,1.71.68,1.73,1.55Z"/>
    <path class="cls-2" d="m98.22,9.96c.55.34,1.83.73,2.69.73.73,0,1-.14,1-.45s-.18-.43-1.19-.69c-2.05-.54-2.85-1.6-2.83-2.73,0-1.78,1.6-3.05,4.03-3.05,1.19,0,2.28.27,2.85.53l-.53,2.24c-.45-.21-1.39-.53-2.17-.53-.55,0-.91.11-.91.46,0,.29.3.46,1.42.77,1.84.5,2.6,1.37,2.62,2.76,0,1.62-1.3,2.96-4.24,2.96-1.37,0-2.51-.29-3.3-.66l.57-2.35Z"/>
    <path class="cls-2" d="m112.34,7.23c0-.39-.27-1.32-1.37-1.32-1.03,0-1.44.82-1.52,1.32h2.89Zm-2.83,2.26c.12.66,1.25,1.02,2.4,1.02.87,0,1.71-.07,2.62-.36l.43,2.21c-1.19.48-2.39.61-3.51.61-3.28,0-5.13-1.76-5.13-4.54,0-1.73,1.19-4.65,4.81-4.65,3.13,0,4.33,2.33,4.33,4.56,0,.46-.07.96-.12,1.16h-5.83Z"/>
    <path class="cls-4" d="m2.81,21.48c-.1.05-.22.09-.36.12-.14.03-.29.04-.44.04-.24,0-.44-.04-.63-.11-.18-.07-.34-.18-.46-.31-.13-.13-.22-.3-.29-.49-.07-.19-.1-.4-.1-.64,0-.25.04-.48.11-.67.07-.2.17-.36.3-.5.13-.13.29-.24.47-.31.18-.07.39-.11.61-.11.16,0,.3.01.44.05.13.03.24.07.34.11l.12-.4c-.06-.03-.17-.07-.32-.11-.15-.04-.35-.06-.59-.06-.3,0-.57.05-.81.15-.25.1-.46.23-.63.41s-.31.39-.41.64c-.1.25-.15.52-.15.82,0,.32.05.59.15.83.1.24.23.44.4.61.17.17.37.29.6.38.23.09.48.13.75.13.24,0,.44-.02.62-.06.17-.04.31-.08.4-.13l-.1-.39h0Zm3.46.58c.24,0,.47-.04.69-.13.22-.09.41-.22.57-.38.16-.17.29-.38.38-.63.09-.25.14-.54.14-.87,0-.29-.04-.55-.12-.78-.08-.24-.2-.44-.35-.62-.15-.17-.33-.31-.54-.4-.21-.09-.45-.14-.71-.14s-.5.05-.71.14c-.22.1-.4.23-.56.41-.16.18-.28.39-.37.64-.09.25-.13.53-.13.83s.04.56.13.8c.09.24.2.44.36.62.15.17.33.3.54.4.21.09.44.14.7.14h0Zm.01-.42c-.19,0-.37-.04-.52-.13-.15-.08-.28-.2-.38-.34-.1-.14-.18-.31-.24-.5-.05-.19-.08-.38-.08-.58s.02-.41.07-.6c.05-.19.13-.36.23-.51.1-.15.23-.26.39-.35.16-.09.34-.13.54-.13s.38.05.54.14c.15.09.28.21.38.36.1.15.18.31.23.5.05.19.07.37.07.56,0,.21-.03.42-.08.61-.06.19-.14.36-.24.51-.1.14-.23.26-.38.34-.15.08-.33.12-.52.12h0Zm6.97.35h.48l-.24-3.84h-.63l-.68,1.86c-.09.24-.16.47-.23.68-.07.21-.12.42-.17.61h-.02c-.05-.2-.11-.41-.17-.62-.06-.21-.14-.44-.22-.68l-.66-1.86h-.63l-.27,3.84h.47l.1-1.65c.02-.29.03-.58.05-.89.01-.3.02-.57.03-.81h.01c.05.23.12.47.19.71s.16.51.25.78l.62,1.83h.38l.68-1.86c.1-.27.19-.52.27-.76.08-.24.15-.47.22-.7h.02c0,.12,0,.25,0,.39,0,.14,0,.28.01.42,0,.14.01.29.02.43,0,.14.02.28.02.42l.1,1.69h0Zm4.46-2.22h-1.49v-1.21h1.58v-.42h-2.07v3.84h2.16v-.42h-1.66v-1.39h1.49v-.42h0Zm2.04,2.22h.5v-1.66h.47c.22,0,.39.07.51.18.12.11.2.3.26.57.05.24.1.44.15.6.04.16.08.27.11.32h.51c-.04-.08-.09-.2-.13-.38-.05-.18-.1-.4-.17-.67-.05-.2-.11-.37-.21-.5-.09-.13-.21-.22-.36-.28v-.02c.1-.03.2-.08.29-.14.09-.06.16-.13.23-.21.06-.08.12-.18.15-.28.04-.11.06-.22.06-.35,0-.15-.03-.29-.08-.41-.05-.13-.13-.23-.23-.32-.12-.11-.27-.19-.45-.24-.18-.05-.4-.07-.67-.07-.17,0-.34,0-.51.02-.17.01-.32.03-.44.06v3.79h0Zm.5-3.45s.1-.02.18-.03c.08,0,.18-.01.3-.01.26,0,.47.06.63.17.16.11.24.29.24.54,0,.22-.08.4-.23.53-.15.13-.36.2-.63.2h-.51v-1.4h0Zm6.37,2.94c-.1.05-.22.09-.36.12-.14.03-.29.04-.44.04-.24,0-.44-.04-.63-.11-.18-.07-.34-.18-.46-.31-.13-.13-.22-.3-.29-.49-.07-.19-.1-.4-.1-.64,0-.25.04-.48.11-.67.07-.2.17-.36.3-.5.13-.13.29-.24.47-.31.18-.07.39-.11.61-.11.16,0,.3.01.44.05.13.03.24.07.34.11l.12-.4c-.06-.03-.17-.07-.32-.11-.15-.04-.35-.06-.59-.06-.3,0-.57.05-.81.15-.25.1-.46.23-.64.41-.18.18-.31.39-.41.64-.1.25-.15.52-.15.82,0,.32.05.59.15.83.1.24.23.44.4.61.17.17.37.29.6.38.23.09.48.13.75.13.24,0,.44-.02.61-.06.18-.04.31-.08.4-.13l-.1-.39h0Zm1.95-3.33v3.84h.5v-3.84h-.5Zm4.57,2.63l.41,1.21h.53l-1.31-3.84h-.6l-1.3,3.84h.51l.4-1.21h1.36Zm-1.26-.38l.38-1.12c.04-.12.07-.24.1-.35.03-.12.06-.23.09-.35h.01c.03.11.06.22.09.34.03.12.07.24.11.36l.38,1.11h-1.16Zm3.99,1.59h2.14v-.42h-1.64v-3.43h-.5v3.84h0Zm3.92-3.84v3.84h.5v-3.84h-.5Zm2.33,3.84h2.8v-.42h-2.15v-.02l2.12-3.11v-.3h-2.59v.42h1.95v.02l-2.13,3.12v.29h0Zm6.62-1.21l.41,1.21h.53l-1.31-3.84h-.6l-1.3,3.84h.51l.4-1.21h1.36Zm-1.26-.38l.38-1.12c.04-.12.07-.24.1-.35.03-.12.06-.23.09-.35h.01c.03.11.06.22.09.34.03.12.07.24.11.36l.38,1.11h-1.16Zm3.99,1.59c.13.01.26.02.41.03s.31,0,.49,0c.38,0,.71-.05.99-.14.29-.09.52-.23.7-.41.18-.18.32-.39.41-.64.09-.25.14-.53.14-.85s-.05-.58-.14-.81c-.09-.23-.23-.42-.4-.57-.17-.16-.38-.28-.64-.36-.25-.08-.56-.12-.92-.12-.2,0-.38,0-.56.02-.18.02-.34.03-.49.06v3.79h0Zm.5-3.44c.06-.02.15-.03.24-.04.1,0,.21-.01.34-.01.52,0,.91.13,1.17.4.26.26.39.63.38,1.09,0,.52-.14.93-.42,1.21-.28.28-.68.43-1.22.43-.1,0-.19,0-.28,0-.09,0-.16-.01-.23-.02v-3.04h0Zm6.02,3.5c.24,0,.47-.04.69-.13.22-.09.41-.22.57-.38.16-.17.29-.38.38-.63.09-.25.14-.54.14-.87,0-.29-.04-.55-.12-.78-.08-.24-.2-.44-.35-.62-.15-.17-.33-.31-.54-.4-.21-.09-.45-.14-.71-.14s-.5.05-.71.14c-.22.1-.4.23-.56.41-.16.18-.28.39-.37.64-.09.25-.13.53-.13.83s.04.56.13.8c.09.24.2.44.36.62.15.17.33.3.54.4.21.09.44.14.7.14h0Zm.01-.42c-.19,0-.37-.04-.52-.13-.15-.08-.28-.2-.38-.34-.1-.14-.18-.31-.24-.5-.05-.19-.08-.38-.08-.58s.02-.41.07-.6c.05-.19.13-.36.23-.51.1-.15.23-.26.39-.35.16-.09.34-.13.54-.13s.38.05.54.14c.15.09.28.21.38.36.1.15.18.31.23.5.05.19.07.37.07.56,0,.21-.03.42-.08.61-.05.19-.13.36-.24.51-.1.14-.23.26-.38.34-.15.08-.33.12-.52.12h0Zm3.64.35h.5v-1.66h.47c.22,0,.39.07.51.18.12.11.2.3.26.57.05.24.1.44.15.6.04.16.08.27.11.32h.51c-.04-.08-.09-.2-.13-.38-.05-.18-.1-.4-.17-.67-.05-.2-.11-.37-.21-.5-.09-.13-.21-.22-.36-.28v-.02c.1-.03.2-.08.28-.14.09-.06.16-.13.23-.21.06-.08.12-.18.15-.28.04-.11.06-.22.06-.35,0-.15-.03-.29-.08-.41-.05-.13-.13-.23-.23-.32-.12-.11-.27-.19-.45-.24-.18-.05-.4-.07-.67-.07-.17,0-.34,0-.51.02-.17.01-.32.03-.44.06v3.79h0Zm.5-3.45s.1-.02.18-.03c.08,0,.18-.01.3-.01.26,0,.47.06.63.17.16.11.24.29.24.54,0,.22-.08.4-.23.53-.15.13-.36.2-.63.2h-.51v-1.4h0Zm5.77,2.24l.41,1.21h.53l-1.31-3.84h-.6l-1.3,3.84h.51l.4-1.21h1.36Zm-1.26-.38l.38-1.12c.04-.12.07-.24.1-.35.03-.12.06-.23.09-.35h.01c.03.11.06.22.09.34.03.12.07.24.11.36l.38,1.11h-1.16Zm8.19,1.59c-.11-.12-.22-.24-.32-.35-.1-.11-.2-.22-.31-.33.14-.17.26-.37.34-.61.09-.24.15-.51.21-.81h-.46c-.08.49-.2.86-.37,1.12-.06-.07-.13-.14-.2-.23-.07-.08-.15-.17-.23-.26-.08-.09-.16-.19-.25-.29-.09-.1-.17-.2-.25-.29v-.02c.31-.15.53-.31.65-.47.13-.16.19-.35.19-.55,0-.13-.02-.24-.07-.34-.04-.1-.1-.18-.18-.26-.08-.07-.17-.13-.27-.17-.1-.04-.22-.06-.33-.06-.16,0-.3.03-.42.08-.12.06-.22.13-.3.22-.08.09-.14.19-.19.3-.04.11-.06.23-.06.34,0,.14.03.27.08.41.06.14.13.27.23.39v.02c-.22.12-.4.27-.54.46-.14.18-.21.4-.21.67,0,.14.03.28.08.41.05.13.13.24.23.34.1.1.22.18.37.24.15.06.31.09.5.09.21,0,.41-.03.6-.1.18-.07.36-.18.53-.34.08.08.14.15.2.21.05.06.11.11.16.17h.59Zm-1.99-.32c-.11,0-.22-.02-.32-.06-.1-.04-.18-.09-.25-.16s-.12-.15-.16-.24c-.04-.1-.06-.2-.06-.31,0-.1.02-.19.05-.28.03-.08.07-.15.12-.22.05-.06.1-.12.16-.17.06-.05.11-.09.16-.12.11.12.21.24.32.36.1.12.2.23.3.33.09.1.18.2.26.29.08.09.15.16.2.23-.09.1-.2.18-.34.25-.13.07-.28.1-.45.1h0Zm.11-3.24c.08,0,.15.01.2.05.05.03.1.07.14.12.04.05.06.1.08.16.02.06.03.12.03.17,0,.16-.06.3-.17.42-.12.11-.27.23-.46.34-.08-.1-.15-.21-.21-.32-.05-.11-.08-.23-.08-.37,0-.15.04-.28.12-.39.08-.11.2-.17.36-.17h0Zm8.09,3.56h.48l-.24-3.84h-.63l-.68,1.86c-.09.24-.16.47-.23.68-.07.21-.12.42-.17.61h-.02c-.05-.2-.11-.41-.17-.62-.06-.21-.14-.44-.22-.68l-.65-1.86h-.63l-.27,3.84h.47l.1-1.65c.02-.29.03-.58.05-.89.01-.3.02-.57.03-.81h.01c.05.23.12.47.19.71.08.25.16.51.25.78l.62,1.83h.38l.68-1.86c.1-.27.19-.52.27-.76.08-.24.15-.47.22-.7h.02c0,.12,0,.25,0,.39,0,.14,0,.28.01.42,0,.14.01.29.02.43,0,.14.01.28.02.42l.1,1.69h0Zm4.46-1.21l.41,1.21h.53l-1.31-3.84h-.6l-1.3,3.84h.51l.4-1.21h1.36Zm-1.26-.38l.38-1.12c.04-.12.07-.24.1-.35.03-.12.06-.23.09-.35h.01c.03.11.06.22.09.34.03.12.07.24.11.36l.38,1.11h-1.16Zm3.99,1.59h.5v-1.66h.47c.22,0,.39.07.51.18.12.11.2.3.26.57.05.24.1.44.14.6.04.16.08.27.11.32h.51c-.04-.08-.09-.2-.13-.38-.05-.18-.1-.4-.17-.67-.05-.2-.11-.37-.2-.5-.09-.13-.21-.22-.36-.28v-.02c.1-.03.2-.08.28-.14.09-.06.16-.13.23-.21.06-.08.12-.18.15-.28.04-.11.06-.22.06-.35,0-.15-.03-.29-.08-.41-.05-.13-.13-.23-.23-.32-.12-.11-.27-.19-.45-.24-.18-.05-.4-.07-.67-.07-.17,0-.34,0-.51.02-.17.01-.32.03-.44.06v3.79h0Zm.5-3.45s.1-.02.18-.03c.08,0,.18-.01.3-.01.26,0,.47.06.63.17.16.11.24.29.24.54,0,.22-.08.4-.23.53-.15.13-.36.2-.63.2h-.5v-1.4h0Zm3.79,3.45h.5v-1.46l.36-.42,1.26,1.89h.59l-1.5-2.21,1.39-1.63h-.62l-1.17,1.44c-.05.06-.1.13-.15.2-.05.07-.1.14-.15.21h-.02v-1.85h-.5v3.84h0Zm6.3-2.22h-1.49v-1.21h1.58v-.42h-2.07v3.84h2.16v-.42h-1.66v-1.39h1.49v-.42h0Zm2.77,2.22h.5v-3.43h1.17v-.42h-2.84v.42h1.17v3.43h0Zm3.33-3.84v3.84h.5v-3.84h-.5Zm3.06,3.84v-1.64c0-.32,0-.6,0-.85,0-.25-.02-.49-.03-.74h.02c.1.2.21.42.33.63.12.21.25.43.38.65l1.22,1.95h.5v-3.84h-.47v1.61c0,.3,0,.57.01.82,0,.25.02.5.05.76h-.01c-.09-.19-.19-.39-.3-.6-.11-.2-.24-.42-.38-.65l-1.23-1.94h-.54v3.84h.47Zm7.43-2.02h-1.26v.4h.78v1.14c-.06.03-.14.06-.25.07-.11.02-.25.03-.41.03-.22,0-.43-.04-.61-.11-.18-.07-.34-.17-.47-.3-.13-.13-.23-.3-.3-.49-.07-.19-.11-.41-.11-.65s.04-.45.11-.65c.07-.19.18-.35.31-.49.13-.13.29-.23.48-.3.19-.07.4-.11.64-.11.19,0,.36.02.49.05.13.03.25.07.36.12l.12-.4c-.08-.04-.21-.08-.37-.12-.17-.04-.36-.06-.58-.06-.32,0-.61.05-.87.15-.26.1-.47.24-.65.41-.18.18-.32.39-.41.63-.1.24-.15.51-.15.79,0,.3.05.57.14.82.09.25.23.45.39.61.19.18.4.31.64.39.24.08.5.12.79.12.26,0,.5-.02.7-.07.21-.05.37-.1.48-.14v-1.85Z"/>
  </g>
</svg>